<?xml version="1.0" encoding="UTF-8" standalone="no"?>
<!DOCTYPE svg PUBLIC "-//W3C//DTD SVG 1.1//EN"
 "http://www.w3.org/Graphics/SVG/1.1/DTD/svg11.dtd">
<!-- Generated by graphviz version 2.38.0 (20140413.2041)
 -->
<!-- Title: G Pages: 1 -->
<svg width="365pt" height="75pt"
 viewBox="0.00 0.00 364.81 74.57" xmlns="http://www.w3.org/2000/svg" xmlns:xlink="http://www.w3.org/1999/xlink">
<g id="graph0" class="graph" transform="scale(1 1) rotate(0) translate(180.98 39.7087)">
<title>G</title>
<polygon fill="white" stroke="none" points="-180.98,34.8616 -180.98,-39.7087 183.826,-39.7087 183.826,34.8616 -180.98,34.8616"/>
<!-- system.ruby.network.routers0 -->
<g id="node1" class="node"><title>system.ruby.network.routers0</title>
<path fill="#cce6fc" stroke="#000000" d="M-87.2597,21.6638C-87.2597,21.6638 -57.2597,21.6638 -57.2597,21.6638 -51.2597,21.6638 -45.2597,15.6638 -45.2597,9.66382 -45.2597,9.66382 -45.2597,-2.33618 -45.2597,-2.33618 -45.2597,-8.33618 -51.2597,-14.3362 -57.2597,-14.3362 -57.2597,-14.3362 -87.2597,-14.3362 -87.2597,-14.3362 -93.2597,-14.3362 -99.2597,-8.33618 -99.2597,-2.33618 -99.2597,-2.33618 -99.2597,9.66382 -99.2597,9.66382 -99.2597,15.6638 -93.2597,21.6638 -87.2597,21.6638"/>
<text text-anchor="middle" x="-72.2597" y="7.36382" font-family="Arial" font-size="14.00" fill="#000000">R 0</text>
</g>
<!-- system.ruby.network.routers2 -->
<g id="node3" class="node"><title>system.ruby.network.routers2</title>
<path fill="#cce6fc" stroke="#000000" d="M-15.4347,30.3616C-15.4347,30.3616 14.5653,30.3616 14.5653,30.3616 20.5653,30.3616 26.5653,24.3616 26.5653,18.3616 26.5653,18.3616 26.5653,6.36162 26.5653,6.36162 26.5653,0.361622 20.5653,-5.63838 14.5653,-5.63838 14.5653,-5.63838 -15.4347,-5.63838 -15.4347,-5.63838 -21.4347,-5.63838 -27.4347,0.361622 -27.4347,6.36162 -27.4347,6.36162 -27.4347,18.3616 -27.4347,18.3616 -27.4347,24.3616 -21.4347,30.3616 -15.4347,30.3616"/>
<text text-anchor="middle" x="-0.434703" y="16.0616" font-family="Arial" font-size="14.00" fill="#000000">R 2</text>
</g>
<!-- system.ruby.network.routers0&#45;&#45;system.ruby.network.routers2 -->
<g id="edge1" class="edge"><title>system.ruby.network.routers0&#45;&#45;system.ruby.network.routers2</title>
<path fill="none" stroke="black" d="M-45.1373,0.368489C-39.5008,0.788319 -33.5567,1.48122 -27.9077,2.37422"/>
</g>
<!-- system.ruby.network.routers1 -->
<g id="node2" class="node"><title>system.ruby.network.routers1</title>
<path fill="#cce6fc" stroke="#000000" d="M56.8484,26.6363C56.8484,26.6363 86.8484,26.6363 86.8484,26.6363 92.8484,26.6363 98.8484,20.6363 98.8484,14.6363 98.8484,14.6363 98.8484,2.63626 98.8484,2.63626 98.8484,-3.36374 92.8484,-9.36374 86.8484,-9.36374 86.8484,-9.36374 56.8484,-9.36374 56.8484,-9.36374 50.8484,-9.36374 44.8484,-3.36374 44.8484,2.63626 44.8484,2.63626 44.8484,14.6363 44.8484,14.6363 44.8484,20.6363 50.8484,26.6363 56.8484,26.6363"/>
<text text-anchor="middle" x="71.8484" y="12.3363" font-family="Arial" font-size="14.00" fill="#000000">R 1</text>
</g>
<!-- system.ruby.network.routers1&#45;&#45;system.ruby.network.routers2 -->
<g id="edge2" class="edge"><title>system.ruby.network.routers1&#45;&#45;system.ruby.network.routers2</title>
<path fill="none" stroke="black" d="M44.5213,10.0447C38.7643,10.3414 32.6895,10.6545 26.9311,10.9512"/>
</g>
<!-- system.ruby.network.routers2&#45;&#45;system.ruby.network.routers0 -->
<g id="edge3" class="edge"><title>system.ruby.network.routers2&#45;&#45;system.ruby.network.routers0</title>
<path fill="none" stroke="black" d="M-27.5571,15.657C-33.1936,15.2371 -39.1377,14.5442 -44.7867,13.6512"/>
</g>
<!-- system.ruby.l1_cntrl0 -->
<g id="node4" class="node"><title>system.ruby.l1_cntrl0</title>
<path fill="#e5bcd0" stroke="#000000" d="M-164.98,0.791349C-164.98,0.791349 -117.98,0.791349 -117.98,0.791349 -111.98,0.791349 -105.98,-5.20865 -105.98,-11.2087 -105.98,-11.2087 -105.98,-23.2087 -105.98,-23.2087 -105.98,-29.2087 -111.98,-35.2087 -117.98,-35.2087 -117.98,-35.2087 -164.98,-35.2087 -164.98,-35.2087 -170.98,-35.2087 -176.98,-29.2087 -176.98,-23.2087 -176.98,-23.2087 -176.98,-11.2087 -176.98,-11.2087 -176.98,-5.20865 -170.98,0.791349 -164.98,0.791349"/>
<text text-anchor="middle" x="-141.48" y="-13.5087" font-family="Arial" font-size="14.00" fill="#000000">l1_cntrl0</text>
</g>
<!-- system.ruby.l1_cntrl0&#45;&#45;system.ruby.network.routers0 -->
<g id="edge4" class="edge"><title>system.ruby.l1_cntrl0&#45;&#45;system.ruby.network.routers0</title>
<path fill="none" stroke="black" d="M-105.653,-6.40558C-103.542,-5.76896 -101.437,-5.13415 -99.3692,-4.51066"/>
</g>
<!-- system.ruby.dir_cntrl0 -->
<g id="node5" class="node"><title>system.ruby.dir_cntrl0</title>
<path fill="#e5bcd0" stroke="#000000" d="M116.826,10.5469C116.826,10.5469 167.826,10.5469 167.826,10.5469 173.826,10.5469 179.826,4.54695 179.826,-1.45305 179.826,-1.45305 179.826,-13.4531 179.826,-13.4531 179.826,-19.4531 173.826,-25.4531 167.826,-25.4531 167.826,-25.4531 116.826,-25.4531 116.826,-25.4531 110.826,-25.4531 104.826,-19.4531 104.826,-13.4531 104.826,-13.4531 104.826,-1.45305 104.826,-1.45305 104.826,4.54695 110.826,10.5469 116.826,10.5469"/>
<text text-anchor="middle" x="142.326" y="-3.75305" font-family="Arial" font-size="14.00" fill="#000000">dir_cntrl0</text>
</g>
<!-- system.ruby.dir_cntrl0&#45;&#45;system.ruby.network.routers1 -->
<g id="edge5" class="edge"><title>system.ruby.dir_cntrl0&#45;&#45;system.ruby.network.routers1</title>
<path fill="none" stroke="black" d="M104.611,1.15683C102.779,1.57523 100.955,1.99158 99.16,2.40132"/>
</g>
</g>
</svg>
